#!OML:ASF F:\VICON\USERDATA\INSTALL\rory3\rory3.ASF
:FULLY-SPECIFIED
:DEGREES
280
root 6.55421 18.2097 7.2965 -179.547 38.547 183.496
lowerback 10.858 5.82506 3.37352
upperback 1.58505 8.21645 -0.514468
thorax -3.83546 4.07079 -3.52244
lowerneck -16.623 8.73018 -3.14855
upperneck 44.4086 22.0609 2.36359
head 19.2289 10.1045 6.58785
rclavicle -6.43068e-014 6.36111e-015
rhumerus -30.105 -14.1704 -74.4673
rradius 39.6715
rwrist 5.81712
rhand -12.4365 9.64235
rfingers 7.12502
rthumb 13.6363 -19.891
lclavicle -6.43068e-014 6.36111e-015
lhumerus -41.4524 11.7621 77.7285
lradius 33.1046
lwrist -6.74897
lhand -14.3713 31.9878
lfingers 7.12502
lthumb 11.771 61.637
rfemur -3.94727 -13.8461 14.9015
rtibia 57.6076
rfoot 1.96057 0.642564
rtoes -9.33287
lfemur -8.23775 1.37744 -29.8211
ltibia 22.5684
lfoot 1.03467 -0.513236
ltoes 5.10203
281
root 6.48577 18.2207 7.37826 -179.38 39.6965 183.616
lowerback 10.8227 6.03656 3.41192
upperback 1.56003 8.4978 -0.530643
thorax -3.81206 4.2091 -3.58983
lowerneck -16.658 8.78994 -3.1532
upperneck 44.4082 22.0917 2.3967
head 19.2262 10.1072 6.60652
rclavicle 1.27719e-014 -1.98785e-016
rhumerus -29.7528 -13.9743 -74.7868
rradius 39.8645
rwrist 5.75089
rhand -12.472 9.55468
rfingers 7.12502
rthumb 13.6022 -19.9809
lclavicle 1.27719e-014 -1.98785e-016
lhumerus -41.6364 12.2555 77.3775
lradius 32.7283
lwrist -7.04415
lhand -14.1412 31.831
lfingers 7.12502
lthumb 11.993 61.4674
rfemur -3.26731 -13.4584 15.1948
rtibia 56.363
rfoot 2.10091 1.25205
rtoes -8.59832
lfemur -8.74859 1.45224 -29.7356
ltibia 22.5376
lfoot 1.35154 0.137286
ltoes 3.5898
282
root 6.41677 18.2287 7.46409 -179.118 40.7158 183.875
lowerback 10.8521 6.21005 3.52199
upperback 1.46351 8.7397 -0.501236
thorax -3.8983 4.32098 -3.65815
lowerneck -16.5246 8.81348 -3.09267
upperneck 44.4313 22.1184 2.3587
head 19.2225 10.1255 6.57418
rclavicle -6.50771e-014 -2.78299e-015
rhumerus -29.4585 -13.7379 -75.0294
rradius 39.9235
rwrist 5.61763
rhand -12.386 9.70801
rfingers 7.12502
rthumb 13.685 -19.822
lclavicle -6.50771e-014 -2.78299e-015
lhumerus -42.0083 12.5609 77.1172
lradius 32.3845
lwrist -7.34216
lhand -13.8885 31.5665
lfingers 7.12502
lthumb 12.2366 61.1885
rfemur -2.60643 -13.227 15.6501
rtibia 55.0073
rfoot 2.30316 2.07216
rtoes -8.98204
lfemur -9.25898 1.6587 -29.4967
ltibia 22.5391
lfoot 1.58594 0.508494
ltoes 2.6493
283
root 6.34799 18.2252 7.54874 -178.973 41.7813 184.057
lowerback 10.9102 6.40355 3.54085
upperback 1.43572 9.00112 -0.469184
thorax -3.94051 4.44767 -3.67566
lowerneck -16.3024 8.86909 -2.96565
upperneck 44.2063 22.1522 2.08685
head 19.1008 10.1366 6.38948
rclavicle -4.75095e-014 -1.25234e-014
rhumerus -29.0705 -13.5448 -75.2619
rradius 39.888
rwrist 5.68214
rhand -12.3896 9.84095
rfingers 7.12502
rthumb 13.6816 -19.6893
lclavicle -4.75095e-014 -1.25234e-014
lhumerus -42.3639 12.7065 76.9825
lradius 32.187
lwrist -7.52132
lhand -13.4674 31.4356
lfingers 7.12502
lthumb 12.6426 61.033
rfemur -1.82318 -12.8735 15.9776
rtibia 53.5524
rfoot 2.83512 2.53083
rtoes -7.86838
lfemur -9.71974 2.13529 -29.3177
ltibia 22.5766
lfoot 1.7636 0.760415
ltoes 2.3282
284
root 6.2595 18.2127 7.62207 -179.078 41.7161 184.21
lowerback 11.1265 6.16367 4.09894
upperback 1.54107 8.76098 -0.503674
thorax -3.88017 4.32781 -4.00153
lowerneck -16.0678 8.92 -2.90664
upperneck 43.8789 22.1096 1.85242
head 18.8952 10.1171 6.19724
rclavicle 4.36084e-014 -5.1684e-015
rhumerus -28.6373 -13.4188 -75.4834
rradius 39.8549
rwrist 5.82413
rhand -12.3866 9.74768
rfingers 7.12502
rthumb 13.6845 -19.7824
lclavicle 4.36084e-014 -5.1684e-015
lhumerus -42.5227 13.0242 76.7753
lradius 32.0151
lwrist -7.62273
lhand -13.3747 30.0296
lfingers 7.12502
lthumb 12.732 59.6214
rfemur -0.524028 -13.3507 16.1616
rtibia 51.9585
rfoot 3.5759 2.10469
rtoes -4.86008
lfemur -9.93818 1.70055 -29.199
ltibia 22.683
lfoot 2.00759 0.825435
ltoes 2.25408
285
root 6.18792 18.2192 7.71522 -178.681 42.6982 184.452
lowerback 11.0318 6.31024 4.20189
upperback 1.50771 8.96001 -0.535128
thorax -3.8241 4.42533 -4.10129
lowerneck -16.1185 8.97147 -2.89403
upperneck 43.8607 22.0995 1.89041
head 18.8883 10.1032 6.2067
rclavicle -9.72554e-014 -1.25234e-014
rhumerus -28.2283 -13.2024 -75.8389
rradius 39.9661
rwrist 5.91466
rhand -12.1745 9.54841
rfingers 7.12502
rthumb 13.8889 -19.9678
lclavicle -9.72554e-014 -1.25234e-014
lhumerus -42.6163 13.389 76.47
lradius 31.8094
lwrist -7.63402
lhand -9.01028 36.0757
lfingers 7.12502
lthumb 16.9365 65.3572
rfemur 0.0323529 -12.8127 16.7384
rtibia 50.2315
rfoot 4.60839 1.2887
rtoes -3.15076
lfemur -10.71 1.89045 -28.9256
ltibia 22.8184
lfoot 2.25534 1.17177
ltoes 2.26238
286
root 6.11219 18.2201 7.8094 -178.478 43.5011 184.485
lowerback 11.0146 6.41416 4.17864
upperback 1.51779 9.09122 -0.596496
thorax -3.78517 4.49212 -4.16302
lowerneck -16.4178 8.97738 -3.00105
upperneck 44.0191 22.0372 2.11759
head 18.9985 10.0505 6.35441
rclavicle -4.69132e-014 9.14409e-015
rhumerus -27.8291 -12.9151 -76.204
rradius 40.247
rwrist 5.79839
rhand -12.1432 9.59523
rfingers 7.12502
rthumb 13.919 -19.9189
lclavicle -4.69132e-014 9.14409e-015
lhumerus -42.6184 13.5186 76.3365
lradius 31.5436
lwrist -7.48973
lhand -12.974 30.4088
lfingers 7.12502
lthumb 13.1183 59.9762
rfemur 0.675362 -12.4736 17.1141
rtibia 48.3583
rfoot 5.29855 0.981803
rtoes -1.9051
lfemur -11.4376 1.93551 -28.8092
ltibia 22.9607
lfoot 2.50466 1.498
ltoes 2.77732
287
root 6.0324 18.2149 7.90001 -178.344 44.2203 184.532
lowerback 11.059 6.51773 4.23973
upperback 1.59357 9.23701 -0.663415
thorax -3.69545 4.5699 -4.27961
lowerneck -16.7162 8.96345 -3.00296
upperneck 44.0294 21.9514 2.11407
head 19.0865 9.97436 6.37131
rclavicle -9.23355e-014 -5.96354e-016
rhumerus -27.3059 -12.8595 -76.4899
rradius 40.3721
rwrist 5.95025
rhand -12.1612 9.87923
rfingers 7.12502
rthumb 13.9016 -19.6361
lclavicle -9.23355e-014 -5.96354e-016
lhumerus -42.4694 13.5045 76.3328
lradius 31.2768
lwrist -7.28007
lhand -13.6961 30.0622
lfingers 7.12502
lthumb 12.4221 59.6731
rfemur 1.45549 -12.228 17.4266
rtibia 46.3821
rfoot 5.0803 0.432319
rtoes -1.01801
lfemur -12.077 1.95184 -28.7084
ltibia 23.0747
lfoot 2.78345 1.7565
ltoes 2.68459
288
root 5.94963 18.2088 7.99389 -178.098 44.8615 184.671
lowerback 11.0738 6.55715 4.37644
upperback 1.64733 9.30554 -0.704904
thorax -3.61192 4.60747 -4.39952
lowerneck -16.7794 9.03367 -3.02611
upperneck 43.7581 21.9562 1.93056
head 18.9681 9.93588 6.26023
rclavicle 6.91771e-014 6.95746e-015
rhumerus -26.7678 -12.7397 -76.7669
rradius 40.475
rwrist 6.23207
rhand -12.0092 10.0635
rfingers 7.12502
rthumb 14.0481 -19.4418
lclavicle 6.91771e-014 6.95746e-015
lhumerus -42.3201 13.5667 76.2992
lradius 31.007
lwrist -7.23172
lhand -7.11296 38.3542
lfingers 7.12502
lthumb 18.7622 67.4694
rfemur 2.1898 -12.0054 17.8655
rtibia 44.3183
rfoot 4.07854 -0.892869
rtoes -1.92782
lfemur -12.8033 2.14544 -28.5422
ltibia 23.2039
lfoot 3.08213 1.51425
ltoes 0.868079
289
root 5.86488 18.1989 8.09178 -177.977 45.4166 184.66
lowerback 11.1195 6.55615 4.44774
upperback 1.70449 9.31256 -0.796069
thorax -3.54959 4.61494 -4.53287
lowerneck -16.8105 9.12513 -3.06482
upperneck 43.5736 21.9524 1.92925
head 18.8516 9.91858 6.23151
rclavicle -1.31297e-013 2.14687e-014
rhumerus -26.2054 -12.5475 -77.1309
rradius 40.5699
rwrist 6.39899
rhand -11.845 9.99736
rfingers 7.12502
rthumb 14.2064 -19.4968
lclavicle -1.31297e-013 2.14687e-014
lhumerus -42.2153 13.826 76.118
lradius 30.8242
lwrist -7.48015
lhand -6.61736 38.5394
lfingers 7.12502
lthumb 19.2388 67.6078
rfemur 2.93699 -11.7179 18.231
rtibia 42.1975
rfoot 2.59344 -2.4061
rtoes -6.67063
lfemur -13.5253 2.25221 -28.4437
ltibia 23.3578
lfoot 3.3902 1.22333
ltoes 0.0313893
290
root 5.77638 18.1899 8.19359 -177.858 45.9262 184.627
lowerback 11.2155 6.54938 4.52679
upperback 1.7788 9.31531 -0.916739
thorax -3.49091 4.62124 -4.70582
lowerneck -17.064 9.16982 -2.98749
upperneck 43.5846 21.9522 1.91066
head 18.9387 9.88694 6.24059
rclavicle 8.9801e-014 -1.15295e-014
rhumerus -25.589 -12.399 -77.5004
rradius 40.654
rwrist 6.59098
rhand -11.7683 9.89688
rfingers 7.12502
rthumb 14.2803 -19.5921
lclavicle 8.9801e-014 -1.15295e-014
lhumerus -42.0508 13.9065 76.0286
lradius 30.7903
lwrist -7.31193
lhand -12.1355 31.5372
lfingers 7.12502
lthumb 13.9265 61.0508
rfemur 3.60236 -11.1843 18.6654
rtibia 40.041
rfoot 2.36608 -3.30292
rtoes -8.25712
lfemur -14.2701 2.15145 -28.31
ltibia 23.522
lfoot 3.68582 1.19047
ltoes 1.4659
291
root 5.68382 18.1748 8.2987 -177.735 46.349 184.588
lowerback 11.3937 6.5416 4.61113
upperback 1.80019 9.32184 -0.992788
thorax -3.53911 4.62303 -4.85286
lowerneck -17.2651 9.15017 -3.04206
upperneck 43.6234 21.9275 1.88816
head 19.0139 9.83551 6.2604
rclavicle -3.19546e-014 -1.59028e-015
rhumerus -25.073 -12.2748 -77.6936
rradius 40.6798
rwrist 6.74897
rhand -11.9081 9.97482
rfingers 7.12502
rthumb 14.1455 -19.5236
lclavicle -3.19546e-014 -1.59028e-015
lhumerus -41.9755 13.8618 76.0888
lradius 30.8104
lwrist -7.20343
lhand -12.9483 30.6074
lfingers 7.12502
lthumb 13.1431 60.1731
rfemur 4.24225 -10.5956 19.1094
rtibia 37.9594
rfoot 1.28735 -4.50606
rtoes -8.70073
lfemur -14.9765 1.89686 -28.175
ltibia 23.6036
lfoot 3.96359 1.15476
ltoes 2.40356
292
root 5.59212 18.1576 8.39909 -177.622 46.8523 184.486
lowerback 11.5092 6.56984 4.64107
upperback 1.72967 9.36423 -1.03892
thorax -3.65908 4.63585 -4.94346
lowerneck -17.0822 9.11774 -3.24835
upperneck 43.5162 21.8851 1.85412
head 18.8781 9.80196 6.22475
rclavicle -4.5969e-014 -3.97569e-015
rhumerus -24.8255 -11.819 -77.7962
rradius 40.8596
rwrist 6.55686
rhand -11.942 9.96081
rfingers 7.12502
rthumb 14.1128 -19.5399
lclavicle -4.5969e-014 -3.97569e-015
lhumerus -42.0701 13.6752 76.1785
lradius 30.8211
lwrist -7.36212
lhand -12.6219 30.5812
lfingers 7.12502
lthumb 13.4576 60.1265
rfemur 4.8915 -10.0012 19.4375
rtibia 36.051
rfoot -1.13538 -5.63176
rtoes -7.27357
lfemur -15.6695 1.60872 -28.0702
ltibia 23.5958
lfoot 4.27165 1.01194
ltoes 2.9602
